PathFileType	4	(X/Y/Z)	s04c0403.trc
DataRate	CameraRate	NumFrames	NumMarkers	Units	OrigDataRate	OrigDataStartFrame	OrigNumFrames
200	200	6	50	mm	200	250	2000
Frame#	Time	racr			lacr			c7			jug			rlel			rdr			llel			ldr			s2			lic			ric			lasi			rasi			rpsi			lpsi			rgt			lgt			rth1			rth2			rth3			rth4			rlfc			rmfc			rsh1			rsh2			rsh3			rsh4			rlmal			rmmal			rcal			rtoe			rmt5			lth1			lth2			lth4			lth3			llfc			lmfc			lsh1			lsh2			lsh3			lsh4			llmal			lmmal			lcal			ltoe			lmt5			SBIKE			LBIKE			RBIKE			
		X1	Y1	Z1	X2	Y2	Z2	X3	Y3	Z3	X4	Y4	Z4	X5	Y5	Z5	X6	Y6	Z6	X7	Y7	Z7	X8	Y8	Z8	X9	Y9	Z9	X10	Y10	Z10	X11	Y11	Z11	X12	Y12	Z12	X13	Y13	Z13	X14	Y14	Z14	X15	Y15	Z15	X16	Y16	Z16	X17	Y17	Z17	X18	Y18	Z18	X19	Y19	Z19	X20	Y20	Z20	X21	Y21	Z21	X22	Y22	Z22	X23	Y23	Z23	X24	Y24	Z24	X25	Y25	Z25	X26	Y26	Z26	X27	Y27	Z27	X28	Y28	Z28	X29	Y29	Z29	X30	Y30	Z30	X31	Y31	Z31	X32	Y32	Z32	X33	Y33	Z33	X34	Y34	Z34	X35	Y35	Z35	X36	Y36	Z36	X37	Y37	Z37	X38	Y38	Z38	X39	Y39	Z39	X40	Y40	Z40	X41	Y41	Z41	X42	Y42	Z42	X43	Y43	Z43	X44	Y44	Z44	X45	Y45	Z45	X46	Y46	Z46	X47	Y47	Z47	X48	Y48	Z48	X49	Y49	Z49	X50	Y50	Z50	
250	1.2500	473.504376	1480.780644	-134.026333	470.128355	1469.095256	-428.851900	448.542573	1527.147512	-291.980639	470.870575	1379.863080	-282.296174	494.773824	1162.489220	-41.792778	701.327023	946.250110	-89.147774	494.591139	1177.763999	-523.625231	697.055885	943.285725	-493.313578	-48.713709	1185.159500	-294.822615	115.513155	1180.411544	-437.883882	112.852091	1166.535102	-125.767436	144.841895	1132.097445	-392.964737	152.429315	1111.609661	-168.793429	-14.068881	1217.965422	-246.154561	-16.345330	1226.844166	-322.976695	52.731694	1109.636408	-111.173588	69.951858	1122.301664	-486.418034	135.100152	964.639638	-91.553271	192.910851	898.527636	-102.785732	213.349486	815.650781	-107.236554	221.137663	915.395027	-121.322807	263.278486	679.447912	-134.041876	237.071336	664.339539	-245.231083	192.279692	574.475758	-108.714688	165.648781	487.717729	-123.452702	99.878369	431.868606	-127.671669	192.245334	475.138783	-149.055946	27.521713	300.232029	-136.382819	49.108091	302.362752	-221.879862	-49.236372	283.638321	-175.129171	237.676404	196.083484	-161.550292	166.421361	190.411662	-106.662992	124.533001	1068.898015	-491.897244	209.284450	1054.308732	-497.391760	224.833675	1083.926191	-481.069060	277.501707	997.998917	-510.318740	412.830171	906.936215	-491.933604	451.435483	890.593312	-384.995383	375.676951	795.905087	-506.899484	356.210805	714.376057	-480.842789	296.063652	649.459539	-471.574550	382.240717	707.043258	-452.594897	221.052112	525.689677	-450.547265	224.427080	534.040967	-361.715469	141.777081	503.350389	-402.845555	441.801298	490.515994	-423.556058	368.934314	451.165616	-480.625287	-185.267881	930.245472	-287.156084	-17.292752	79.441909	-485.780170	-17.604518	79.377671	-84.779356	
251	1.2550	473.535370	1480.717335	-134.049796	470.206238	1468.939455	-428.854720	448.536250	1527.132870	-291.935457	470.876813	1379.833682	-282.267746	494.920989	1162.585125	-41.643844	701.250946	946.189491	-89.153096	494.500832	1177.662729	-523.612730	696.796374	943.160935	-493.249027	-48.727410	1185.175957	-294.824294	115.507094	1180.394589	-437.873974	112.822766	1166.536440	-125.767801	144.783469	1132.098028	-392.939982	152.395351	1111.612964	-168.757134	-14.068872	1217.965422	-246.154607	-16.358799	1226.870684	-322.983556	52.700626	1109.633696	-111.157602	69.927720	1122.324976	-486.427221	135.051795	964.617490	-91.543764	192.858689	898.518367	-102.780616	213.302405	815.629683	-107.221626	221.110615	915.385595	-121.307293	263.223754	679.437299	-134.019032	237.003537	664.334285	-245.218030	192.234705	574.453389	-108.712432	165.616347	487.717867	-123.426982	99.865396	431.834319	-127.659379	192.207700	475.125540	-149.040125	27.535511	300.174211	-136.379632	49.132164	302.313885	-221.878217	-49.221495	283.559566	-175.135058	237.710246	196.074946	-161.535260	166.465204	190.357333	-106.671336	124.509075	1068.931376	-491.903582	209.271339	1054.324750	-497.371954	224.802942	1083.945883	-481.057268	277.490868	998.020068	-510.276049	412.809787	906.995188	-491.901313	451.438071	890.627159	-384.957144	375.638593	795.963327	-506.876175	356.185974	714.402655	-480.803543	296.028752	649.530796	-471.563460	382.205126	707.112086	-452.551601	221.019706	525.744967	-450.556764	224.397329	534.077638	-361.707297	141.725381	503.400804	-402.847817	441.754259	490.538650	-423.555180	368.894252	451.212018	-480.624177	-185.258421	930.249362	-287.157274	-17.303053	79.447105	-485.779018	-17.597581	79.377531	-84.780729	
252	1.2600	473.564165	1480.690042	-134.046144	470.281001	1468.788996	-428.823993	448.570569	1527.102798	-291.893902	470.875390	1379.812881	-282.244534	495.074061	1162.636524	-41.509153	701.198431	946.112311	-89.142000	494.412958	1177.532544	-523.599113	696.542522	943.045841	-493.211891	-48.761574	1185.177992	-294.827243	115.522239	1180.393554	-437.905098	112.784657	1166.544794	-125.763879	144.728075	1132.062812	-392.837027	152.366408	1111.611565	-168.761276	-14.096316	1217.979947	-246.163651	-16.346532	1226.887757	-323.011574	52.652886	1109.624842	-111.171364	69.900275	1122.321740	-486.422817	135.020038	964.619914	-91.545065	192.791900	898.516380	-102.756270	213.239144	815.601618	-107.216358	221.062956	915.333386	-121.300060	263.158630	679.412477	-134.008661	236.958570	664.313756	-245.197234	192.170113	574.435915	-108.704818	165.588041	487.690563	-123.426316	99.850601	431.788172	-127.670934	192.403675	475.285144	-148.731828	27.558661	300.109827	-136.379015	49.133248	302.265908	-221.878465	-49.206088	283.507503	-175.148501	237.728157	196.070669	-161.546789	166.486488	190.343678	-106.673486	124.508569	1068.949695	-491.902901	209.262265	1054.356270	-497.370068	224.786617	1083.971086	-481.017370	277.476717	998.042388	-510.246162	412.791541	907.040210	-491.862667	451.418796	890.645188	-384.897305	375.630397	796.010917	-506.850657	356.160476	714.463527	-480.784133	296.007198	649.582123	-471.532405	382.181221	707.140408	-452.533566	220.985502	525.787288	-450.550583	224.351837	534.111701	-361.724819	141.695740	503.470509	-402.836405	441.718383	490.571563	-423.538377	368.859101	451.241458	-480.613730	-185.251223	930.256398	-287.156058	-17.302064	79.436707	-485.768860	-17.601124	79.383049	-84.776630	
253	1.2650	473.596756	1480.627331	-134.043671	470.354055	1468.646267	-428.790298	448.592420	1527.077966	-291.826154	470.909618	1379.796570	-282.178508	495.236235	1162.671255	-41.415083	701.189711	946.016297	-89.093182	494.301577	1177.381555	-523.589305	696.279590	942.941801	-493.174331	-48.776064	1185.175290	-294.855262	115.515332	1180.374160	-437.868200	112.724456	1166.595319	-125.755821	144.746692	1132.078412	-392.901458	152.313796	1111.608804	-168.766785	-14.095409	1217.968101	-246.199791	-16.374763	1226.899598	-323.011567	52.624664	1109.631352	-111.186283	69.897128	1122.335118	-486.426447	134.948411	964.600640	-91.530721	192.736861	898.497762	-102.756422	213.159634	815.589473	-107.202838	221.008622	915.321595	-121.274090	263.093113	679.410828	-134.008755	236.909252	664.294038	-245.184121	192.110801	574.414752	-108.694640	165.560130	487.661205	-123.437472	99.807233	431.763594	-127.680665	192.142858	475.051513	-149.028373	27.544734	300.045391	-136.371110	49.140739	302.232688	-221.877486	-49.188169	283.430052	-175.143779	237.765356	196.068979	-161.548775	166.515449	190.318985	-106.658134	124.489623	1068.947194	-491.898364	209.268093	1054.356608	-497.336354	224.764706	1083.982911	-481.009551	277.486030	998.075897	-510.214775	412.802309	907.089384	-491.832850	451.400425	890.699336	-384.874230	375.621450	796.051546	-506.829785	356.153534	714.516052	-480.763728	295.993796	649.618083	-471.509321	382.157274	707.203304	-452.535909	220.981917	525.820447	-450.531478	224.324389	534.156848	-361.699396	141.665291	503.512285	-402.845564	441.696935	490.605469	-423.551727	368.824166	451.279737	-480.619716	-185.214274	930.174442	-287.119246	-17.295278	79.435046	-485.767024	-17.601493	79.377752	-84.784607	
254	1.2700	473.606351	1480.597430	-134.052167	470.451414	1468.501202	-428.838394	448.632565	1527.054566	-291.778665	470.878715	1379.789808	-282.092625	495.408696	1162.700123	-41.366049	701.226177	945.941771	-89.048607	494.172791	1177.231356	-523.566348	696.018803	942.854930	-493.175664	-48.788655	1185.173872	-294.887600	115.540015	1180.350710	-437.860157	112.673898	1166.608631	-125.755351	144.709701	1132.038992	-392.775575	152.282884	1111.631198	-168.753818	-14.140235	1217.971662	-246.207221	-16.396184	1226.893848	-323.039368	52.574238	1109.651320	-111.181076	69.890609	1122.348717	-486.431782	134.892101	964.576510	-91.541186	192.664586	898.482950	-102.750562	213.099199	815.568251	-107.197053	220.941732	915.286852	-121.270622	263.022385	679.395113	-133.992982	236.837940	664.266813	-245.170892	192.042358	574.380451	-108.676728	165.513969	487.646410	-123.428108	99.784771	431.727103	-127.668910	192.137878	475.053491	-148.995214	27.542005	300.007834	-136.370363	49.125761	302.176399	-221.878531	-49.186877	283.363964	-175.156243	237.783502	196.052907	-161.537906	166.564904	190.270805	-106.668766	124.475210	1068.951269	-491.877013	209.245031	1054.380958	-497.349953	224.753094	1084.006190	-480.976454	277.490418	998.110858	-510.188880	412.805237	907.126877	-491.804778	451.368611	890.719589	-384.821345	375.607979	796.095191	-506.807079	356.131689	714.541565	-480.750296	295.963229	649.674506	-471.493975	382.149271	707.233037	-452.512871	220.950067	525.874776	-450.544309	224.280109	534.222555	-361.737172	141.633657	503.565653	-402.857289	441.658870	490.619502	-423.536433	368.789787	451.311411	-480.599796	-185.255226	930.236255	-287.147205	-17.287011	79.445554	-485.774712	-17.595489	79.384510	-84.778054	
255	1.2750	473.619313	1480.556041	-134.007966	470.504932	1468.327792	-428.789835	448.654487	1527.000668	-291.667164	470.885467	1379.760517	-282.065404	495.587830	1162.720127	-41.322456	701.283176	945.852758	-89.001178	494.034354	1177.084574	-523.570203	695.761507	942.739260	-493.176280	-48.812648	1185.183531	-294.931199	115.570381	1180.328890	-437.884795	112.606669	1166.619218	-125.766706	144.728165	1132.059990	-392.838060	152.239587	1111.646516	-168.758416	-14.137856	1217.968761	-246.258778	-16.415608	1226.919612	-323.083568	52.537884	1109.650645	-111.212647	69.870212	1122.344457	-486.439818	134.821535	964.548803	-91.545400	192.605884	898.460549	-102.750629	212.998501	815.541345	-107.182853	220.877950	915.245731	-121.206802	262.947109	679.365804	-133.975950	236.767391	664.265581	-245.153887	191.992297	574.361450	-108.687037	165.446768	487.592971	-123.414857	99.725084	431.675728	-127.647621	192.047900	474.992585	-149.001426	27.537525	299.932828	-136.374335	49.167946	302.121323	-221.893570	-49.099770	283.362552	-175.214971	237.808860	196.061868	-161.540952	166.583020	190.248640	-106.677271	124.468295	1068.957072	-491.881191	209.248320	1054.395755	-497.321215	224.738695	1084.019017	-480.975742	277.495180	998.126098	-510.176802	412.823423	907.175435	-491.770900	451.373161	890.726843	-384.826526	375.611558	796.134383	-506.779691	356.120512	714.581236	-480.732520	295.961604	649.734854	-471.481712	382.135645	707.254336	-452.481764	220.940656	525.927827	-450.516631	224.271838	534.265190	-361.725874	141.610102	503.617366	-402.849354	441.629337	490.641537	-423.520740	368.761910	451.336009	-480.606446	-185.210404	930.168235	-287.117872	-17.306091	79.442554	-485.775965	-17.592749	79.378398	-84.769175	
